<svg xmlns="http://www.w3.org/2000/svg" width="52.025" height="48.611" viewBox="0 0 52.025 48.611">
  <g id="Group_4959" data-name="Group 4959" transform="translate(-332 -351)">
    <path id="Icon_simple-hipchat" data-name="Icon simple-hipchat" d="M43.361,40.353a21.2,21.2,0,0,0,8.664-16.733c0-12.388-11.647-22.44-26.006-22.44S0,11.232,0,23.621,11.643,46.07,26.008,46.07a29.831,29.831,0,0,0,5.471-.494l.568-.1a27.074,27.074,0,0,0,13.631,4.314,1.4,1.4,0,0,0,1.2-2.393C45.47,45.675,43.005,40.624,43.361,40.353Z" transform="translate(332 349.819)" fill="#00386c"/>
    <circle id="Ellipse_209" data-name="Ellipse 209" cx="3.5" cy="3.5" r="3.5" transform="translate(340 372)" fill="#fff"/>
    <circle id="Ellipse_210" data-name="Ellipse 210" cx="3.5" cy="3.5" r="3.5" transform="translate(351 372)" fill="#fff"/>
    <circle id="Ellipse_211" data-name="Ellipse 211" cx="3.5" cy="3.5" r="3.5" transform="translate(364 372)" fill="#fff"/>
  </g>
</svg>
