<svg xmlns="http://www.w3.org/2000/svg" width="639.157" height="711.155" viewBox="0 0 639.157 711.155">
  <g id="Group_4468" data-name="Group 4468" transform="translate(-600.745 -18.308)">
    <path id="Icon_awesome-cloud-sun" data-name="Icon awesome-cloud-sun" d="M40.444,22.9a3.791,3.791,0,0,0,.056-.394,4.486,4.486,0,0,0-6.9-3.8,7.866,7.866,0,0,0-15.04,3.234c0,.211.049.408.063.612a6.734,6.734,0,0,0,.5,13.451H38.25A6.734,6.734,0,0,0,40.444,22.9ZM10.181,21.312A7.873,7.873,0,1,1,22.887,12.48a10.09,10.09,0,0,1,2.159-.527l2.1-6.251a1.066,1.066,0,0,0-1.35-1.35l-6.173,2.06L16.7.591a1.064,1.064,0,0,0-1.905,0L11.883,6.412,5.7,4.352A1.071,1.071,0,0,0,4.352,5.7l2.06,6.173L.591,14.794a1.064,1.064,0,0,0,0,1.905L6.412,19.61l-2.06,6.173a1.066,1.066,0,0,0,1.35,1.35l5.351-1.779A9.087,9.087,0,0,1,12.713,23a7.753,7.753,0,0,1-2.531-1.687Zm-.337-5.569a5.907,5.907,0,0,0,4.774,5.787,9.02,9.02,0,0,1,1.772-.823,10.135,10.135,0,0,1,4.739-7.383A5.9,5.9,0,0,0,9.844,15.743Z" transform="matrix(0.914, -0.407, 0.407, 0.914, 600.745, 77.705)" fill="rgba(0,140,29,0.32)"/>
    <path id="Icon_awesome-soundcloud" data-name="Icon awesome-soundcloud" d="M7.833,18.021l.408,4.57-.408,4.8a.332.332,0,0,1-.309.309.3.3,0,0,1-.3-.309l-.394-4.8.394-4.57a.3.3,0,0,1,.3-.3.337.337,0,0,1,.309.3Zm1.5-3.206a.362.362,0,0,0-.352.352l-.352,7.425.352,4.8a.362.362,0,0,0,.352.352.344.344,0,0,0,.33-.352l.408-4.8-.408-7.425A.344.344,0,0,0,9.337,14.815ZM11.13,13.12a.389.389,0,0,0-.394.373l-.309,9.141.309,4.767a.389.389,0,0,0,.394.373A.371.371,0,0,0,11.5,27.4l.373-4.767L11.5,13.493A.371.371,0,0,0,11.13,13.12ZM.506,19.913c-.1,0-.155.077-.176.176L0,22.591l.33,2.461c.021.1.077.176.176.176s.155-.077.176-.176l.394-2.461-.394-2.5c-.021-.1-.077-.176-.176-.176Zm1.659-1.54a.174.174,0,0,0-.176.176l-.45,4.043.45,3.945a.18.18,0,0,0,.176.2.209.209,0,0,0,.2-.176l.506-3.966-.506-4.043a.209.209,0,0,0-.2-.176Zm1.779-.8a.244.244,0,0,0-.232.232L3.3,22.591l.408,4.627a.254.254,0,0,0,.232.218.219.219,0,0,0,.218-.218l.485-4.627L4.163,17.8a.222.222,0,0,0-.218-.232Zm1.779-.155a.248.248,0,0,0-.253.253l-.408,4.922.408,4.767a.248.248,0,0,0,.253.253A.28.28,0,0,0,6,27.359l.45-4.767L6,17.67A.28.28,0,0,0,5.723,17.416ZM22.7,9.619a.549.549,0,0,0-.3-.1.647.647,0,0,0-.394.134.721.721,0,0,0-.232.471v.056l-.232,12.424.12,2.285.12,2.229a.643.643,0,0,0,.626.6.609.609,0,0,0,.6-.6l.274-4.514-.274-12.48a.677.677,0,0,0-.316-.506ZM20.82,10.695a.618.618,0,0,0-.309-.1.6.6,0,0,0-.309.1.555.555,0,0,0-.253.471l-.021.12-.2,11.306s0,.021.218,4.612v.021a.53.53,0,0,0,.12.33.6.6,0,0,0,.45.218.57.57,0,0,0,.394-.176.484.484,0,0,0,.176-.394l.021-.471.218-4.12-.232-11.447a.631.631,0,0,0-.274-.471Zm-7.833,1.582a.427.427,0,0,0-.408.429l-.309,9.886.309,4.725a.418.418,0,0,0,.837,0l.352-4.725-.352-9.886a.44.44,0,0,0-.429-.429Zm26.487,4.416a5.647,5.647,0,0,0-2.152.429A9.771,9.771,0,0,0,27.6,8.234a9.588,9.588,0,0,0-3.537.661c-.429.155-.548.309-.548.647V27.1a.662.662,0,0,0,.6.647H39.466a5.527,5.527,0,0,0,.007-11.053Zm-20.862-4.24a.558.558,0,0,0-.548.548l-.232,9.612.232,4.612a.554.554,0,0,0,.548.527.522.522,0,0,0,.527-.527l.274-4.612L19.139,13A.54.54,0,0,0,18.612,12.452ZM14.843,11.9a.477.477,0,0,0-.45.471l-.274,10.216.274,4.7a.461.461,0,0,0,.921,0l.309-4.7-.309-10.216a.5.5,0,0,0-.471-.471Zm1.877.239a.482.482,0,0,0-.485.485l-.274,9.963.274,4.669a.5.5,0,0,0,.485.485.486.486,0,0,0,.485-.485l.3-4.669-.3-9.963a.477.477,0,0,0-.485-.485Z" transform="matrix(0.839, 0.545, -0.545, 0.839, 1103.585, 677.422)" fill="rgba(0,140,29,0.32)"/>
    <path id="Icon_awesome-cloud-sun-rain" data-name="Icon awesome-cloud-sun-rain" d="M35.895,15.855a5.623,5.623,0,0,0-5.52-4.605,5.553,5.553,0,0,0-2.412.563A6.737,6.737,0,0,0,15.75,15.75c0,.035.014.077.014.113A5.624,5.624,0,0,0,16.875,27h18a5.618,5.618,0,0,0,1.02-11.145ZM8.726,18.274A6.733,6.733,0,0,1,17.634,8.205,8.938,8.938,0,0,1,22.5,6.75c.049,0,.091.014.141.014l.626-1.877a.913.913,0,0,0-1.16-1.153L16.812,5.5,14.316.506a.916.916,0,0,0-1.638,0L10.181,5.5,4.887,3.734a.913.913,0,0,0-1.153,1.16L5.5,10.188l-4.992,2.5a.916.916,0,0,0,0,1.638l4.992,2.5L3.734,22.113a.919.919,0,0,0,1.16,1.16l4.163-1.385c-.014-.169-.049-.33-.049-.506a7.771,7.771,0,0,1,.436-2.524,6.484,6.484,0,0,1-.717-.584ZM13.634,14.2a8.966,8.966,0,0,1,2.243-4.5A4.439,4.439,0,0,0,13.5,9,4.5,4.5,0,0,0,9,13.5a4.458,4.458,0,0,0,1.484,3.312A7.885,7.885,0,0,1,13.634,14.2ZM36.879,29.4a1.122,1.122,0,0,0-1.533.422l-2.573,4.5a1.121,1.121,0,0,0,.422,1.533,1.122,1.122,0,0,0,1.533-.422l2.573-4.5a1.127,1.127,0,0,0-.422-1.533Zm-6.75,0a1.122,1.122,0,0,0-1.533.422l-2.573,4.5a1.121,1.121,0,0,0,.422,1.533,1.122,1.122,0,0,0,1.533-.422l2.573-4.5a1.127,1.127,0,0,0-.422-1.533Zm-6.75,0a1.122,1.122,0,0,0-1.533.422l-2.573,4.5a1.121,1.121,0,0,0,.422,1.533,1.122,1.122,0,0,0,1.533-.422l2.573-4.5a1.127,1.127,0,0,0-.422-1.533Zm-6.75,0a1.122,1.122,0,0,0-1.533.422l-2.573,4.5a1.121,1.121,0,0,0,.422,1.533,1.122,1.122,0,0,0,1.533-.422l2.573-4.5a1.127,1.127,0,0,0-.422-1.533Z" transform="matrix(0.891, 0.454, -0.454, 0.891, 704.129, 679)" fill="rgba(0,140,29,0.32)"/>
    <path id="Icon_awesome-cloud-sun-rain-2" data-name="Icon awesome-cloud-sun-rain" d="M35.895,15.855a5.623,5.623,0,0,0-5.52-4.605,5.553,5.553,0,0,0-2.412.563A6.737,6.737,0,0,0,15.75,15.75c0,.035.014.077.014.113A5.624,5.624,0,0,0,16.875,27h18a5.618,5.618,0,0,0,1.02-11.145ZM8.726,18.274A6.733,6.733,0,0,1,17.634,8.205,8.938,8.938,0,0,1,22.5,6.75c.049,0,.091.014.141.014l.626-1.877a.913.913,0,0,0-1.16-1.153L16.812,5.5,14.316.506a.916.916,0,0,0-1.638,0L10.181,5.5,4.887,3.734a.913.913,0,0,0-1.153,1.16L5.5,10.188l-4.992,2.5a.916.916,0,0,0,0,1.638l4.992,2.5L3.734,22.113a.919.919,0,0,0,1.16,1.16l4.163-1.385c-.014-.169-.049-.33-.049-.506a7.771,7.771,0,0,1,.436-2.524,6.484,6.484,0,0,1-.717-.584ZM13.634,14.2a8.966,8.966,0,0,1,2.243-4.5A4.439,4.439,0,0,0,13.5,9,4.5,4.5,0,0,0,9,13.5a4.458,4.458,0,0,0,1.484,3.312A7.885,7.885,0,0,1,13.634,14.2ZM36.879,29.4a1.122,1.122,0,0,0-1.533.422l-2.573,4.5a1.121,1.121,0,0,0,.422,1.533,1.122,1.122,0,0,0,1.533-.422l2.573-4.5a1.127,1.127,0,0,0-.422-1.533Zm-6.75,0a1.122,1.122,0,0,0-1.533.422l-2.573,4.5a1.121,1.121,0,0,0,.422,1.533,1.122,1.122,0,0,0,1.533-.422l2.573-4.5a1.127,1.127,0,0,0-.422-1.533Zm-6.75,0a1.122,1.122,0,0,0-1.533.422l-2.573,4.5a1.121,1.121,0,0,0,.422,1.533,1.122,1.122,0,0,0,1.533-.422l2.573-4.5a1.127,1.127,0,0,0-.422-1.533Zm-6.75,0a1.122,1.122,0,0,0-1.533.422l-2.573,4.5a1.121,1.121,0,0,0,.422,1.533,1.122,1.122,0,0,0,1.533-.422l2.573-4.5a1.127,1.127,0,0,0-.422-1.533Z" transform="matrix(0.766, 0.643, -0.643, 0.766, 1165.294, 206.389)" fill="rgba(0,140,29,0.32)"/>
    <g id="Icon_feather-sun" data-name="Icon feather-sun" transform="translate(1151.236 451)" opacity="0.37">
      <path id="Path_3463" data-name="Path 3463" d="M25.5,18A7.5,7.5,0,1,1,18,10.5,7.5,7.5,0,0,1,25.5,18Z" fill="none" stroke="#008c1d" stroke-linecap="round" stroke-linejoin="round" stroke-width="3"/>
      <path id="Path_3464" data-name="Path 3464" d="M18,1.5v3" fill="none" stroke="#008c1d" stroke-linecap="round" stroke-linejoin="round" stroke-width="3"/>
      <path id="Path_3465" data-name="Path 3465" d="M18,31.5v3" fill="none" stroke="#008c1d" stroke-linecap="round" stroke-linejoin="round" stroke-width="3"/>
      <path id="Path_3466" data-name="Path 3466" d="M6.33,6.33,8.46,8.46" fill="none" stroke="#008c1d" stroke-linecap="round" stroke-linejoin="round" stroke-width="3"/>
      <path id="Path_3467" data-name="Path 3467" d="M27.54,27.54l2.13,2.13" fill="none" stroke="#008c1d" stroke-linecap="round" stroke-linejoin="round" stroke-width="3"/>
      <path id="Path_3468" data-name="Path 3468" d="M1.5,18h3" fill="none" stroke="#008c1d" stroke-linecap="round" stroke-linejoin="round" stroke-width="3"/>
      <path id="Path_3469" data-name="Path 3469" d="M31.5,18h3" fill="none" stroke="#008c1d" stroke-linecap="round" stroke-linejoin="round" stroke-width="3"/>
      <path id="Path_3470" data-name="Path 3470" d="M6.33,29.67l2.13-2.13" fill="none" stroke="#008c1d" stroke-linecap="round" stroke-linejoin="round" stroke-width="3"/>
      <path id="Path_3471" data-name="Path 3471" d="M27.54,8.46l2.13-2.13" fill="none" stroke="#008c1d" stroke-linecap="round" stroke-linejoin="round" stroke-width="3"/>
    </g>
    <g id="Icon_feather-sun-2" data-name="Icon feather-sun" transform="translate(622 451)" opacity="0.37">
      <path id="Path_3463-2" data-name="Path 3463" d="M25.5,18A7.5,7.5,0,1,1,18,10.5,7.5,7.5,0,0,1,25.5,18Z" fill="none" stroke="#008c1d" stroke-linecap="round" stroke-linejoin="round" stroke-width="3"/>
      <path id="Path_3464-2" data-name="Path 3464" d="M18,1.5v3" fill="none" stroke="#008c1d" stroke-linecap="round" stroke-linejoin="round" stroke-width="3"/>
      <path id="Path_3465-2" data-name="Path 3465" d="M18,31.5v3" fill="none" stroke="#008c1d" stroke-linecap="round" stroke-linejoin="round" stroke-width="3"/>
      <path id="Path_3466-2" data-name="Path 3466" d="M6.33,6.33,8.46,8.46" fill="none" stroke="#008c1d" stroke-linecap="round" stroke-linejoin="round" stroke-width="3"/>
      <path id="Path_3467-2" data-name="Path 3467" d="M27.54,27.54l2.13,2.13" fill="none" stroke="#008c1d" stroke-linecap="round" stroke-linejoin="round" stroke-width="3"/>
      <path id="Path_3468-2" data-name="Path 3468" d="M1.5,18h3" fill="none" stroke="#008c1d" stroke-linecap="round" stroke-linejoin="round" stroke-width="3"/>
      <path id="Path_3469-2" data-name="Path 3469" d="M31.5,18h3" fill="none" stroke="#008c1d" stroke-linecap="round" stroke-linejoin="round" stroke-width="3"/>
      <path id="Path_3470-2" data-name="Path 3470" d="M6.33,29.67l2.13-2.13" fill="none" stroke="#008c1d" stroke-linecap="round" stroke-linejoin="round" stroke-width="3"/>
      <path id="Path_3471-2" data-name="Path 3471" d="M27.54,8.46l2.13-2.13" fill="none" stroke="#008c1d" stroke-linecap="round" stroke-linejoin="round" stroke-width="3"/>
    </g>
    <path id="Icon_awesome-cloud-sun-rain-3" data-name="Icon awesome-cloud-sun-rain" d="M35.895,15.855a5.623,5.623,0,0,0-5.52-4.605,5.553,5.553,0,0,0-2.412.563A6.737,6.737,0,0,0,15.75,15.75c0,.035.014.077.014.113A5.624,5.624,0,0,0,16.875,27h18a5.618,5.618,0,0,0,1.02-11.145ZM8.726,18.274A6.733,6.733,0,0,1,17.634,8.205,8.938,8.938,0,0,1,22.5,6.75c.049,0,.091.014.141.014l.626-1.877a.913.913,0,0,0-1.16-1.153L16.812,5.5,14.316.506a.916.916,0,0,0-1.638,0L10.181,5.5,4.887,3.734a.913.913,0,0,0-1.153,1.16L5.5,10.188l-4.992,2.5a.916.916,0,0,0,0,1.638l4.992,2.5L3.734,22.113a.919.919,0,0,0,1.16,1.16l4.163-1.385c-.014-.169-.049-.33-.049-.506a7.771,7.771,0,0,1,.436-2.524,6.484,6.484,0,0,1-.717-.584ZM13.634,14.2a8.966,8.966,0,0,1,2.243-4.5A4.439,4.439,0,0,0,13.5,9,4.5,4.5,0,0,0,9,13.5a4.458,4.458,0,0,0,1.484,3.312A7.885,7.885,0,0,1,13.634,14.2ZM36.879,29.4a1.122,1.122,0,0,0-1.533.422l-2.573,4.5a1.121,1.121,0,0,0,.422,1.533,1.122,1.122,0,0,0,1.533-.422l2.573-4.5a1.127,1.127,0,0,0-.422-1.533Zm-6.75,0a1.122,1.122,0,0,0-1.533.422l-2.573,4.5a1.121,1.121,0,0,0,.422,1.533,1.122,1.122,0,0,0,1.533-.422l2.573-4.5a1.127,1.127,0,0,0-.422-1.533Zm-6.75,0a1.122,1.122,0,0,0-1.533.422l-2.573,4.5a1.121,1.121,0,0,0,.422,1.533,1.122,1.122,0,0,0,1.533-.422l2.573-4.5a1.127,1.127,0,0,0-.422-1.533Zm-6.75,0a1.122,1.122,0,0,0-1.533.422l-2.573,4.5a1.121,1.121,0,0,0,.422,1.533,1.122,1.122,0,0,0,1.533-.422l2.573-4.5a1.127,1.127,0,0,0-.422-1.533Z" transform="matrix(0.766, 0.643, -0.643, 0.766, 1208.877, 18.308)" fill="rgba(0,140,29,0.32)"/>
  </g>
</svg>
